<?xml version="1.0" standalone="no"?>
<!DOCTYPE svg PUBLIC "-//W3C//DTD SVG 20010904//EN"
 "http://www.w3.org/TR/2001/REC-SVG-20010904/DTD/svg10.dtd">
<svg version="1.0" xmlns="http://www.w3.org/2000/svg"
 width="548.000000pt" height="548.000000pt" viewBox="0 0 548.000000 548.000000"
 preserveAspectRatio="xMidYMid meet">
<metadata>
Created by potrace 1.11, written by Peter Selinger 2001-2013
</metadata>
<g transform="translate(0.000000,548.000000) scale(0.100000,-0.100000)"
fill="#000000" stroke="none">
<path d="M3845 5440 c-186 -28 -302 -202 -260 -390 34 -157 218 -266 378 -224
193 50 291 267 202 444 -59 116 -195 188 -320 170z m141 -47 c70 -24 145 -102
168 -178 50 -156 -46 -326 -204 -360 -206 -45 -383 135 -335 341 37 162 208
252 371 197z"/>
<path d="M3830 5310 c0 -48 -1 -50 -28 -50 -25 0 -29 -4 -27 -27 1 -23 6 -29
28 -31 l27 -3 1 -112 c1 -62 1 -115 1 -118 -3 -19 44 -43 91 -47 53 -4 53 -4
52 24 0 23 -5 30 -25 32 -38 5 -42 14 -42 99 1 130 -2 121 35 125 27 3 32 7
32 31 1 24 -3 27 -32 27 -33 0 -33 0 -33 50 l0 50 -40 0 -40 0 0 -50z"/>
<path d="M2647 4994 c-1 -1 -56 -4 -122 -8 -66 -3 -135 -8 -152 -11 -18 -3
-45 -7 -60 -9 -275 -39 -523 -150 -676 -302 -202 -199 -304 -536 -264 -869 9
-76 11 -90 21 -180 4 -33 9 -69 11 -80 2 -11 4 -30 4 -42 1 -22 4 -23 143 -25
l142 -3 -65 -42 c-156 -101 -272 -258 -313 -426 -46 -185 -46 -188 -41 -857 3
-349 6 -971 6 -1382 l0 -748 1362 0 1362 0 0 1967 c-1 1083 -4 1984 -7 2003
-4 19 -9 60 -13 90 -3 30 -17 102 -31 159 -95 382 -316 598 -723 706 -52 13
-119 27 -150 31 -31 3 -59 8 -62 10 -10 6 -365 23 -372 18z m199 -948 c16 -4
38 -8 49 -10 78 -15 198 -77 235 -120 33 -41 -44 -106 -178 -149 -73 -24 -97
-30 -167 -42 -16 -2 -41 -7 -55 -9 -14 -3 -43 -8 -65 -11 -22 -3 -51 -7 -65
-10 -14 -2 -43 -7 -65 -10 -49 -7 -320 -54 -357 -62 -24 -4 -28 -2 -28 16 0
36 40 143 75 201 71 116 150 171 294 200 84 17 262 20 327 6z m348 -1058 c-14
-131 -33 -191 -88 -285 -76 -130 -206 -241 -348 -297 -106 -42 -190 -56 -318
-52 -145 4 -213 27 -283 96 l-47 47 21 52 c65 155 199 225 614 316 252 56 345
85 405 124 25 16 46 30 46 30 1 1 0 -14 -2 -31z"/>
</g>
</svg>
